<svg xmlns="http://www.w3.org/2000/svg" viewBox="0 0 512 512" width="512pt" height="512pt"><path fill="none" d="M0 0h512v512H0z"/><path fill="#fff" d="M434.796 263.59l24.236-3.406c2.186-.307 3.822 1.23 3.65 3.431-5.719 73.514-71.503 140.614-159.869 153.033-100.564 14.134-192.536-47.873-205.256-138.38-12.72-90.508 58.598-175.463 159.162-189.597 78.282-11.001 151.358 24.134 183.872 79.487 1.118 1.903 3.801 3.199 5.987 2.892l34.761-4.885c2.186-.308 3.218-2.188 2.302-4.197-7.999-17.544-21.183-36.848-37.17-53.784-52.272-55.374-134.517-85.441-221.534-73.212C89.394 54.021-6.731 168.526 10.414 290.515c17.144 121.989 141.107 205.562 276.649 186.513 135.543-19.049 231.668-133.554 214.523-255.543-1.531-10.896-3.914-21.486-5.9-27.902-.652-2.109-2.957-3.571-5.143-3.264l-11.291 1.587-3.564.5-21.714 3.052-28.196 3.963-10.056 1.413c-2.187.307-3.08 2.117-1.994 4.039 3.39 6 7.056 16.498 8.637 27.746 1.581 11.248.95 22.349-.655 29.051-.514 2.147.844 3.641 3.03 3.334l10.056-1.414z"/><path fill="#fff" d="M417.867 171.497c-28.134-39.672-84.817-64.47-145.256-55.976-83.075 11.675-141.99 81.856-131.482 156.623 10.508 74.767 86.485 125.99 169.56 114.314 60.439-8.494 108.09-47.955 124.199-93.845.732-2.083-.45-3.525-2.636-3.218l-18.726 2.632c-2.186.308-4.893 2.088-6.041 3.974-14.059 23.099-43.228 42.94-78.541 47.903-59.027 8.295-113.011-28.1-120.477-81.224-7.466-53.124 34.395-102.989 93.421-111.284 35.313-4.963 68.821 6.069 88.703 24.398 1.623 1.496 4.716 2.462 6.902 2.154l18.727-2.631c2.186-.308 2.924-2.019 1.647-3.82z"/><path fill="#fff" d="M348.771 197.567c-11.955-6.309-26.389-9.062-41.371-6.957-34.979 4.916-59.785 34.466-55.361 65.947 4.424 31.481 36.415 53.048 71.393 48.132 14.983-2.106 28.099-8.731 37.851-18.091l.758 5.394c.277 1.968 2.276 3.316 4.462 3.008l23.767-3.34c2.186-.307 3.736-2.153 3.46-4.121l-14.029-99.819c-.277-1.968-2.276-3.316-4.462-3.009l-23.766 3.341c-2.187.307-3.737 2.153-3.461 4.121l.759 5.394zm6.256 44.516c-2.212-15.741-18.208-26.524-35.697-24.066-17.489 2.457-29.893 17.232-27.68 32.973 2.212 15.74 18.207 26.524 35.696 24.066 17.49-2.458 29.893-17.233 27.681-32.973z" fill-rule="evenodd"/></svg>