<?xml version="1.0" encoding="UTF-8" standalone="no"?><!-- Generator: Gravit.io --><svg xmlns="http://www.w3.org/2000/svg" xmlns:xlink="http://www.w3.org/1999/xlink" style="isolation:isolate" viewBox="0 0 512 464" width="512pt" height="464pt"><defs><clipPath id="_clipPath_8brULbIyX8qbl3zq5bbZTpzBIH0kNkkN"><rect width="512" height="464"/></clipPath></defs><g clip-path="url(#_clipPath_8brULbIyX8qbl3zq5bbZTpzBIH0kNkkN)"><g><path d=" M 364.635 264.088 L 365.394 269.469 C 365.682 271.51 367.753 272.909 370.012 272.593 L 394.585 269.153 C 396.846 268.837 398.447 266.923 398.159 264.882 L 383.553 161.358 C 383.265 159.317 381.197 157.918 378.936 158.234 L 354.363 161.675 C 352.104 161.991 350.501 163.904 350.789 165.945 L 351.548 171.327 C 339.245 164.894 324.441 162.093 309.087 164.243 C 272.921 169.306 247.298 199.925 251.904 232.573 L 251.904 232.573 C 256.51 265.222 289.613 287.619 325.779 282.556 C 341.133 280.407 354.589 273.65 364.635 264.088 Z  M 358.654 221.697 L 357.529 213.718 C 353.333 199.578 338.036 190.352 321.451 192.674 C 303.367 195.206 290.556 210.514 292.86 226.84 L 292.86 226.84 C 295.163 243.165 311.713 254.363 329.797 251.831 C 346.382 249.509 358.534 236.44 358.654 221.697 Z " fill-rule="evenodd" fill="rgb(128,0,161)"/><path d=" M 400.117 151.499 C 400.911 151.387 416.61 149.19 419.171 148.831 C 422.273 148.389 423.646 145.053 422.021 142.965 C 389.747 101.472 333.175 77.923 273.038 86.343 C 187.141 98.368 126.288 171.085 137.228 248.628 L 137.228 248.628 C 148.169 326.171 226.785 379.362 312.682 367.337 C 372.827 358.916 420.695 320.739 440.234 271.983 C 441.347 268.918 438.282 266.806 435.847 267.147 L 416.889 269.801 C 415.546 269.989 414.53 270.665 413.823 271.723 C 396.967 298.383 367.3 318.217 331.517 323.226 C 270.487 331.77 214.626 293.976 206.853 238.881 L 206.853 238.881 C 199.08 183.785 242.319 132.117 303.349 123.573 C 339.132 118.563 373.138 129.483 396.715 150.48 C 397.668 151.253 399.322 151.61 400.117 151.499 Z " fill="rgb(128,0,161)"/><path d=" M 499.136 164.045 C 500.577 163.842 502.719 164.52 503.501 166.641 C 506.325 176.295 508.484 186.244 509.924 196.451 C 511.519 207.752 512.179 218.989 511.959 230.099 C 509.712 343.372 415.969 443.364 288.341 461.232 C 148.197 480.852 19.924 394.065 2.075 267.549 L 2.075 267.549 C -15.774 141.034 83.515 22.388 223.658 2.768 C 339.227 -13.411 446.719 42.767 490.877 133.915 C 491.946 135.954 490.568 138.815 487.637 139.246 C 464.479 142.488 452.519 144.162 451.76 144.269 C 451 144.375 448.591 144.13 447.544 142.408 C 411.241 82.76 336.513 47.294 256.578 58.484 C 152.6 73.041 78.934 161.068 92.177 254.935 L 92.177 254.935 C 105.42 348.802 200.59 413.192 304.568 398.635 C 394.156 386.093 461.244 319.007 469.624 240.639 C 469.843 237.865 467.328 236.347 465.024 236.67 L 432.124 241.276 C 429.253 241.678 427.183 239.615 427.449 237.091 C 429.159 227.631 429.412 217.831 428.013 207.918 C 426.615 198.011 423.663 188.663 419.405 180.043 C 418.529 178.215 419.506 175.193 422.688 174.748 Q 422.703 174.738 422.718 174.727 L 460.664 169.414 L 460.664 169.414 L 499.136 164.045 Z " fill="rgb(128,0,161)"/></g></g></svg>