<?xml version="1.0" encoding="UTF-8" standalone="no"?>
<svg xmlns="http://www.w3.org/2000/svg" xmlns:xlink="http://www.w3.org/1999/xlink" viewBox="0 0 512 512" width="512pt"
    height="512pt">

    <g transform="rotate(-8 256 256) scale(1 0.9)">
        <!-- letters -->
        <g>
            <!-- outer G -->
            <circle cx="256" cy="256" r="248" fill="black" />
            <!-- inner G -->
            <circle cx="280" cy="256" r="184" fill="white" stroke="none" />
            <!-- outer C -->
            <circle cx="292" cy="256" r="152" fill="black" />
            <!-- inner C -->
            <circle cx="316" cy="256" r="108" fill="white" />
            <!-- outer a -->
            <circle cx="316" cy="256" r="64" fill="black" />
            <!-- inner a -->
            <circle cx="324" cy="256" r="32" fill="white" />
            <!-- stem of a, rounded rect -->
            <path
                d="
                M 360 196 L 384 196 C 386.208 196 388 197.792 388 200 L 388 312 C 388 314.208 386.208 316 384 316 L 360 316 C 357.792 316 356 314.208 356 312 L 356 200 C 356 197.792 357.792 196 360 196 Z"
                fill="black" />
            <!-- mask above G bar -->
            <rect x="396" y="192" width="108" height="28" fill="white" />
            <!-- mask below G bar -->
            <rect x="396" y="292" width="54" height="28" fill="white" />
            <!-- G bar fill -->
            <rect x="432" y="220" width="54" height="72" fill="#000" />
        </g>
        <!-- rounded corners masks -->
        <g>
            <path
                d=" M 430 292 L 430 324 L 428.027 324 C 428.085 323.876 428.144 323.751 428.202 323.627 C 429.133 321.625 428.097 320 425.889 320 L 406.979 320 C 404.771 320 401.915 321.443 400.605 323.219 C 400.413 323.48 400.218 323.741 400.022 324 L 400.022 188 C 400.218 188.259 400.413 188.52 400.605 188.781 C 401.915 190.557 404.771 192 406.979 192 L 425.889 192 C 428.097 192 429.133 190.375 428.202 188.373 C 428.144 188.249 428.085 188.124 428.027 188 L 451.06 188 C 451.091 188.083 451.122 188.167 451.153 188.25 C 451.922 190.32 454.339 192 456.546 192 L 491.649 192 C 493.856 192 495.187 190.268 494.618 188.135 C 494.606 188.09 494.594 188.045 494.582 188 L 504 188 L 504 224 L 501.984 224 C 501.982 223.986 501.98 223.972 501.978 223.958 C 501.66 221.774 499.609 220 497.401 220 L 421.845 220 C 419.637 220 418.443 221.69 419.179 223.771 C 421.831 231.262 424 243.38 424 256 C 424 268.62 421.831 280.738 419.179 288.229 C 418.443 290.31 419.637 292 421.845 292 L 430 292 Z"
                fill="#fff"/>
            <path
                d=" M 459.268 298 L 462 298 L 462 290 L 454 290 L 454 292 L 456.473 292 C 458.681 292 460.124 293.758 459.694 295.923 C 459.556 296.617 459.414 297.309 459.268 298 Z"/>
        </g>
    </g>
</svg>