<?xml version="1.0" encoding="UTF-8" standalone="no"?>
<svg xmlns="http://www.w3.org/2000/svg" xmlns:xlink="http://www.w3.org/1999/xlink" viewBox="0 0 512 512" width="512pt"
    height="512pt">

    <g transform="rotate(-8 256 256) scale(1 0.9)">
        <!-- letters -->
        <g>
            <!-- outer G -->
            <circle cx="256" cy="256" r="248" fill="black" />
            <!-- inner G -->
            <circle cx="280" cy="256" r="184" fill="white" stroke="none" />
            <!-- outer C -->
            <circle cx="292" cy="256" r="152" fill="black" />
            <!-- inner C -->
            <circle cx="316" cy="256" r="108" fill="white" />
            <!-- outer a -->
            <circle cx="316" cy="256" r="64" fill="black" />
            <!-- inner a -->
            <circle cx="324" cy="256" r="32" fill="white" />
            <!-- stem of a, rounded rect -->
            <path
                d="
                M 360 196 L 384 196 C 386.208 196 388 197.792 388 200 L 388 312 C 388 314.208 386.208 316 384 316 L 360 316 C 357.792 316 356 314.208 356 312 L 356 200 C 356 197.792 357.792 196 360 196 Z"
                fill="black" />
            <!-- mask above G bar -->
            <rect x="396" y="192" width="108" height="28" fill="white" />
            <!-- mask below G bar -->
            <rect x="396" y="292" width="54" height="28" fill="white" />
            <!-- G bar fill -->
            <rect x="432" y="220" width="54" height="72" fill="#000" />
            <!-- rounded corners -->
            <path
                d="
                M 401.887 190.516 L 401 190.5 L 401 194.5 L 405 194.5 L 405 192 C 403.741 192 402.621 191.421 401.887 190.516 Z"
                fill="white" />
        </g>
        <!-- rounded corners -->
        <g>
            <path
                d=" M 401.887 190.516 L 400 190.516 L 400 194 L 404.996 194 L 404.996 192 C 403.741 192 402.621 191.421 401.887 190.516 Z "
                fill="#ffffff" />
            <path
                d=" M 427.033 186.188 L 432 186.188 L 432 194 L 423.467 194 L 423.467 192 L 423.467 192 C 425.674 192 427.467 190.208 427.467 188 C 427.467 187.348 427.31 186.732 427.033 186.188 Z "
                fill="#ffffff" />
            <path
                d=" M 451.601 189.508 L 450 189.508 L 450 194 L 455.307 194 L 455.307 192 C 453.632 192 452.197 190.969 451.601 189.508 Z "
                fill="#ffffff" />
            <path
                d=" M 494.246 186.962 L 504 186.962 L 504 194 L 490.382 194 L 490.382 192 L 490.382 192 C 492.59 192 494.382 190.208 494.382 188 C 494.382 187.641 494.335 187.293 494.246 186.962 Z "
                fill="white" />
            <path
                d=" M 423.344 220 L 423.344 218 L 416 218 L 416 225.137 L 419.512 225.137 C 419.405 224.776 419.348 224.395 419.348 224 C 419.348 221.794 421.138 220.002 423.344 220 Z "
                fill="white" />
            <path
                d=" M 501.88 223.444 L 504 223.444 L 504 218 L 497.919 218 L 497.919 220 L 497.919 220 C 499.938 220 501.61 221.499 501.88 223.444 Z "
                fill="white" />
            <path
                d=" M 419.526 286.836 L 416 286.836 L 416 294 L 423.344 294 L 423.344 292 C 421.141 291.995 419.354 290.204 419.354 288 C 419.354 287.595 419.414 287.204 419.526 286.836 Z "
                fill="#ffffff" />
            <path
                d=" M 459.428 296.906 L 462 296.906 L 462 290 L 455.531 290 L 455.531 292 L 455.531 292 C 457.739 292 459.531 293.792 459.531 296 C 459.531 296.312 459.496 296.615 459.428 296.906 Z "
                fill="#000000" />
            <path
                d=" M 404.996 320 L 404.996 318 L 398 318 L 398 321.577 L 401.791 321.577 C 402.522 320.619 403.675 320 404.973 320 C 404.98 320 404.988 320 404.996 320 Z "
                fill="#ffffff" />
            <path
                d=" M 427.041 325.797 L 432 325.797 L 432 318 L 423.467 318 L 423.467 320 L 423.467 320 C 425.674 320 427.467 321.792 427.467 324 C 427.467 324.646 427.313 325.256 427.041 325.797 Z "
                fill="#ffffff" />
        </g>
    </g>
</svg>